<svg width="20" height="20" viewBox="0 0 20 20" fill="none" xmlns="http://www.w3.org/2000/svg">
<path d="M16.3969 5.45551C15.5578 4.61457 14.5606 3.94806 13.4627 3.49445C12.3648 3.04083 11.1879 2.80907 10 2.81254H9.96797C4.98828 2.82973 0.9375 6.93441 0.9375 11.9633V13.75C0.9375 14.1644 1.10212 14.5619 1.39515 14.8549C1.68817 15.1479 2.0856 15.3125 2.5 15.3125H17.5C17.9144 15.3125 18.3118 15.1479 18.6049 14.8549C18.8979 14.5619 19.0625 14.1644 19.0625 13.75V11.875C19.0657 10.6818 18.8318 9.49973 18.3741 8.39767C17.9165 7.29562 17.2444 6.29552 16.3969 5.45551ZM17.1875 13.4375H9.94688L13.575 8.35941C13.6468 8.25928 13.6982 8.14598 13.7262 8.02599C13.7543 7.90599 13.7584 7.78166 13.7384 7.66007C13.7183 7.53848 13.6746 7.42203 13.6095 7.31736C13.5445 7.21269 13.4595 7.12185 13.3594 7.05004C13.2592 6.97822 13.1459 6.92683 13.026 6.8988C12.906 6.87077 12.7816 6.86665 12.66 6.88667C12.5384 6.90669 12.422 6.95047 12.3173 7.0155C12.2127 7.08052 12.1218 7.16553 12.05 7.26566L7.64219 13.4375H2.8125V11.9633C2.8125 11.8289 2.8125 11.6954 2.82344 11.5625H4.375C4.62364 11.5625 4.8621 11.4638 5.03791 11.288C5.21373 11.1121 5.3125 10.8737 5.3125 10.625C5.3125 10.3764 5.21373 10.1379 5.03791 9.96213C4.8621 9.78631 4.62364 9.68754 4.375 9.68754H3.17344C4.02578 7.07894 6.29844 5.11566 9.0625 4.74926V6.25004C9.0625 6.49868 9.16127 6.73714 9.33709 6.91295C9.5129 7.08877 9.75136 7.18754 10 7.18754C10.2486 7.18754 10.4871 7.08877 10.6629 6.91295C10.8387 6.73714 10.9375 6.49868 10.9375 6.25004V4.75004C12.2897 4.92747 13.5635 5.48595 14.6101 6.36024C15.6568 7.23453 16.4331 8.38855 16.8484 9.68754H15.625C15.3764 9.68754 15.1379 9.78631 14.9621 9.96213C14.7863 10.1379 14.6875 10.3764 14.6875 10.625C14.6875 10.8737 14.7863 11.1121 14.9621 11.288C15.1379 11.4638 15.3764 11.5625 15.625 11.5625H17.1797C17.1844 11.6664 17.1875 11.7704 17.1875 11.875V13.4375Z" fill="white"/>
</svg>
